<svg id="Layer_1" data-name="Layer 1" xmlns="http://www.w3.org/2000/svg" viewBox="0 0 376.23 300.55"><title>helpwin</title><path d="M146.57,319.38V264.64H70.78V141.7H51.16l-2,8.5H14.35V113.71H49.06L51,122h19.5V18.83H334.2V122.11h19.63l1.76-8.35h35v36.35H355.83l-2-8.4H334.56V264.28H323.67c-28.41,0-56.82-.24-85.23.22a31.33,31.33,0,0,0-15.61,4.8c-22.56,14.49-44.73,29.58-67.06,44.43C153.24,315.42,150.59,316.92,146.57,319.38Zm-39-131H297.33v-113H107.58Z" transform="translate(-14.35 -18.83)"/><path d="M144.9,150.58a18.51,18.51,0,0,1-17.37-19.65c.54-10.33,9.47-18.52,19.29-17.68a18.38,18.38,0,0,1,16.85,20.07C162.9,143.3,154.45,151.08,144.9,150.58Z" transform="translate(-14.35 -18.83)"/><path d="M259.37,150.58c-10.06.07-18.31-8.45-18.23-18.83s8.54-18.82,18.5-18.55a18.5,18.5,0,0,1,17.76,18.36C277.59,141.94,269.46,150.51,259.37,150.58Z" transform="translate(-14.35 -18.83)"/></svg>